<svg width="500" height="500" viewBox="0 0 500 500" fill="none" xmlns="http://www.w3.org/2000/svg">
<g clip-path="url(#clip0_20_35)">
<path d="M155 157L153 172C160.2 168.4 173.667 173.833 179.5 177L184 155.5C178.4 153.1 162.333 155.5 155 157Z" fill="#48FF24"/>
<path d="M153.802 373.462L134.741 373.782C134.189 365.011 133.669 355.209 133.183 344.379C132.788 333.444 132.46 322.8 132.199 312.444C132.131 311.372 132.097 310.053 132.096 308.487C132.096 306.922 132.061 305.603 131.994 304.531L130.075 229.797C130.065 221.871 130.079 213.553 130.118 204.842C130.15 196.034 130.419 185.547 130.925 173.382L130.957 164.573L132.583 162.416C134.8 161.885 138.966 161.231 145.082 160.454C151.295 159.672 158.486 158.876 166.654 158.068C174.914 157.157 183.225 156.291 191.589 155.47C200.05 154.644 207.685 153.918 214.495 153.293C221.403 152.663 226.514 152.243 229.827 152.034L232.605 151.859L231.746 226.768L310.399 221.814C310.459 221.223 310.455 218.826 310.386 214.623C310.317 210.42 310.238 205.288 310.15 199.227C310.062 193.165 309.961 186.909 309.849 180.458C309.736 174.007 309.608 168.096 309.465 162.723C309.317 157.253 309.159 153.202 308.994 150.57C312.277 149.874 316.007 149.297 320.186 148.838C324.462 148.373 328.108 147.996 331.123 147.709L415.193 140.212C415.224 140.699 415.246 143.388 415.261 148.28C415.373 153.165 415.473 159.421 415.562 167.048C415.645 174.577 415.713 182.646 415.766 191.253C415.916 199.854 416 208.166 416.016 216.189C416.123 224.108 416.215 231.001 416.291 236.867C416.458 242.63 416.6 246.437 416.717 248.288C416.79 249.458 416.815 250.631 416.792 251.806C416.865 252.976 416.906 255.175 416.914 258.404C417.019 261.626 417.146 266.755 417.296 273.791C417.543 280.82 417.87 290.683 418.279 303.377C418.784 316.066 419.435 332.611 420.231 353.011C418.866 353.097 415.604 353.351 410.445 353.774C405.383 354.191 399.2 354.678 391.897 355.236C384.599 355.891 376.909 356.523 368.825 357.13C360.748 357.834 352.96 358.471 345.462 359.042C338.067 359.703 331.644 360.254 326.192 360.696C320.838 361.131 317.235 361.407 315.383 361.523C315.217 358.892 315.014 354.893 314.774 349.526C314.625 344.056 314.442 338.05 314.226 331.507C314.01 324.965 313.802 318.569 313.604 312.319C313.504 306.063 313.419 300.833 313.35 296.63L235.282 301.548L235.441 364.651L156.726 373.278L153.802 373.462Z" fill="black"/>
<path d="M341.618 315.634L347.822 311.374L350.462 344.269L362.795 335.755L360.156 302.861L366.285 298.607L369.524 338.977L363.395 343.231L362.795 335.755C362.899 337.051 362.712 338.47 362.234 340.013C361.756 341.557 361.07 343.016 360.178 344.392C359.281 345.718 358.285 346.751 357.191 347.491L351.062 351.745C349.397 352.881 347.887 353.128 346.531 352.484C345.175 351.841 344.418 350.522 344.258 348.529L341.618 315.634ZM362.795 335.755L363.395 343.231L356.591 340.015L355.991 332.539L362.795 335.755ZM366.285 298.607L360.156 302.861L353.352 299.645L359.556 295.385L366.285 298.607ZM360.156 302.861L362.795 335.755L355.991 332.539L353.352 299.645L360.156 302.861ZM347.822 311.374L341.618 315.634L334.814 312.418L341.018 308.158L347.822 311.374ZM362.795 335.755L350.462 344.269L343.658 341.053L355.991 332.539L362.795 335.755ZM341.618 315.634L344.258 348.529C344.418 350.522 345.175 351.841 346.531 352.484L339.727 349.268C338.371 348.625 337.613 347.306 337.453 345.313L334.814 312.418L341.618 315.634ZM391.056 301.133L397.26 296.874C398.875 295.741 400.36 295.496 401.716 296.14C403.072 296.783 403.83 298.102 403.99 300.096L406.029 325.514C406.133 326.81 405.946 328.229 405.468 329.772C404.99 331.316 404.305 332.775 403.412 334.151C402.565 335.473 401.594 336.504 400.5 337.244L381.962 350.017L377.163 290.21L383.367 285.95L385.527 312.863C385.419 311.518 385.606 310.098 386.088 308.605C386.566 307.062 387.229 305.629 388.076 304.307C388.968 302.931 389.962 301.873 391.056 301.133ZM397.86 304.35L385.527 312.863L387.567 338.282L399.9 329.768L397.86 304.35ZM397.86 304.35L399.9 329.768L393.096 326.552L391.056 301.133L397.86 304.35ZM399.9 329.768L387.567 338.282L380.762 335.066L393.096 326.552L399.9 329.768ZM401.716 296.14C400.36 295.496 398.875 295.741 397.26 296.874L391.056 301.133C389.962 301.873 388.968 302.931 388.076 304.307C387.229 305.629 386.566 307.062 386.088 308.605C385.606 310.098 385.419 311.518 385.527 312.863L378.723 309.647C378.615 308.302 378.802 306.882 379.284 305.389C379.762 303.846 380.45 302.411 381.346 301.085C382.239 299.709 383.233 298.651 384.327 297.911L390.456 293.657C392.121 292.521 393.631 292.274 394.987 292.918L401.716 296.14ZM383.367 285.95L377.163 290.21L370.359 286.994L376.563 282.734L383.367 285.95ZM377.163 290.21L381.962 350.017L375.158 346.801L370.359 286.994L377.163 290.21Z" fill="white"/>
<path d="M110.538 255.829C103.673 260.056 97.5924 260.756 92.2968 257.928C87.0013 255.1 84.2224 249.688 83.9602 241.693L81.6002 169.731C81.4232 164.334 82.439 158.698 84.6476 152.822C86.8496 146.747 89.8676 141.145 93.7016 136.016C97.529 130.688 101.699 126.649 106.211 123.9L169.747 84.296C176.412 80.0753 182.393 79.3789 187.688 82.2068C193.184 85.0282 196.063 90.4367 196.325 98.4324L197.701 140.41L172.107 156.257L170.731 114.28L107.194 153.884L109.555 225.845L173.091 186.241C179.756 182.02 185.736 181.324 191.032 184.152C196.527 186.973 199.406 192.382 199.668 200.378L202.028 272.339C202.199 277.536 201.083 283.176 198.681 289.258C196.479 295.333 193.464 301.035 189.637 306.363C186.003 311.485 181.93 315.421 177.417 318.17L113.881 357.774C107.016 362.001 100.936 362.701 95.6402 359.873C90.3447 357.045 87.5658 351.633 87.3035 343.638L86.3202 313.654L111.915 297.806L112.898 327.79L176.434 288.186L174.074 216.225L110.538 255.829ZM174.074 216.225L176.434 288.186L149.856 274.05L147.496 202.089L174.074 216.225ZM176.434 288.186L112.898 327.79L86.3202 313.654L149.856 274.05L176.434 288.186ZM170.731 114.28L172.107 156.257L145.53 142.121L144.153 100.143L170.731 114.28ZM111.915 297.806L86.3202 313.654L59.7426 299.517L85.3369 283.67L111.915 297.806ZM86.3202 313.654L87.3035 343.638C87.5658 351.633 90.3447 357.045 95.6402 359.873L69.0625 345.737C63.767 342.909 60.9881 337.497 60.7259 329.501L59.7426 299.517L86.3202 313.654ZM191.332 184.142C185.836 181.321 179.756 182.02 173.091 186.241L109.555 225.845L82.9769 211.709L146.513 172.105C153.378 167.877 159.458 167.178 164.754 170.006L191.332 184.142ZM187.988 82.197C182.493 79.3756 176.412 80.0753 169.747 84.296L106.211 123.9C101.699 126.649 97.529 130.688 93.7016 136.016C89.8676 141.145 86.8496 146.747 84.6476 152.822C82.439 158.698 81.4232 164.334 81.6002 169.731L83.9602 241.693C84.2224 249.688 87.0013 255.1 92.2968 257.928L65.7192 243.792C60.4237 240.964 57.6448 235.552 57.3826 227.556L55.0225 155.595C54.8455 150.198 55.8613 144.561 58.0699 138.686C60.272 132.61 63.29 127.008 67.1239 121.88C70.9514 116.552 75.1212 112.513 79.6335 109.763L143.17 70.1596C150.035 65.9323 156.115 65.2326 161.411 68.0605L187.988 82.197Z" fill="#33FF57"/>
<path d="M234.781 169.096L243.121 163.517C245.292 162.033 247.276 161.731 249.073 162.611C250.871 163.491 251.86 165.261 252.041 167.921L254.35 201.843C254.468 203.572 254.196 205.462 253.534 207.511C252.871 209.561 251.934 211.496 250.721 213.316C249.571 215.065 248.26 216.423 246.789 217.392L230.208 228.544L231.091 241.514L222.751 247.094L218.2 180.248L226.54 174.669L227.22 184.646C227.097 182.85 227.37 180.961 228.037 178.977C228.699 176.928 229.605 175.028 230.756 173.279C231.968 171.46 233.31 170.065 234.781 169.096ZM243.8 173.494L227.22 184.646L229.529 218.567L246.11 207.415L243.8 173.494ZM243.8 173.494L246.11 207.415L237.09 203.018L234.781 169.096L243.8 173.494ZM246.11 207.415L229.529 218.567L220.51 214.17L237.09 203.018L246.11 207.415ZM249.073 162.611C247.276 161.731 245.292 162.033 243.121 163.517L234.781 169.096C233.31 170.065 231.968 171.46 230.756 173.279C229.605 175.028 228.699 176.928 228.037 178.977C227.37 180.961 227.097 182.85 227.22 184.646L218.2 180.248C218.078 178.453 218.35 176.563 219.017 174.58C219.679 172.53 220.619 170.629 221.836 168.875C223.049 167.055 224.39 165.661 225.861 164.692L234.102 159.12C236.339 157.631 238.356 157.326 240.154 158.206L249.073 162.611ZM218.2 180.248L222.751 247.094L213.731 242.696L209.181 175.851L218.2 180.248ZM226.54 174.669L218.2 180.248L209.181 175.851L217.521 170.271L226.54 174.669ZM278.374 171.14L294.954 159.988C297.125 158.504 299.109 158.202 300.907 159.082C302.704 159.962 303.693 161.732 303.874 164.392L306.455 202.305C306.573 204.034 306.301 205.924 305.638 207.973C304.976 210.023 304.039 211.958 302.826 213.778C301.676 215.527 300.365 216.885 298.894 217.854L282.313 229.006C280.076 230.495 278.058 230.799 276.261 229.919C274.464 229.039 273.475 227.269 273.294 224.609L270.712 186.696C270.59 184.901 270.863 183.011 271.529 181.028C272.192 178.978 273.131 177.077 274.348 175.323C275.561 173.503 276.903 172.109 278.374 171.14ZM281.634 219.029L298.215 207.877L295.634 169.965L279.053 181.117L281.634 219.029ZM295.634 169.965L298.215 207.877L289.195 203.48L286.614 165.568L295.634 169.965ZM298.215 207.877L281.634 219.029L272.614 214.632L289.195 203.48L298.215 207.877ZM300.907 159.082C299.109 158.202 297.125 158.504 294.954 159.988L278.374 171.14C276.903 172.109 275.561 173.503 274.348 175.323C273.131 177.077 272.192 178.978 271.529 181.028C270.863 183.011 270.59 184.901 270.712 186.696L273.294 224.609C273.475 227.269 274.464 229.039 276.261 229.919L267.242 225.522C265.444 224.642 264.455 222.872 264.274 220.211L261.693 182.299C261.571 180.503 261.843 178.614 262.51 176.63C263.172 174.581 264.112 172.679 265.329 170.926C266.541 169.106 267.883 167.711 269.354 166.743L285.935 155.591C288.172 154.102 290.19 153.798 291.987 154.677L300.907 159.082ZM322.138 177.181L330.478 171.602L331.158 181.579L339.398 176.006C339.276 174.211 339.548 172.321 340.215 170.338C340.877 168.288 341.817 166.387 343.034 164.633C344.247 162.813 345.588 161.419 347.059 160.45L355.3 154.877L355.979 164.854L347.738 170.427C347.856 172.156 347.584 174.046 346.922 176.096C346.259 178.145 345.322 180.08 344.109 181.9C342.892 183.653 341.548 185.014 340.077 185.983L331.837 191.556L333.875 221.487L325.534 227.066L322.138 177.181ZM322.138 177.181L325.534 227.066L316.515 222.668L313.119 172.784L322.138 177.181ZM355.3 154.877L347.059 160.45C345.588 161.419 344.247 162.813 343.034 164.633C341.817 166.387 340.877 168.288 340.215 170.338C339.548 172.321 339.276 174.211 339.398 176.006L330.478 171.602C330.356 169.806 330.628 167.917 331.295 165.933C331.958 163.884 332.864 161.984 334.014 160.236C335.227 158.416 336.569 157.021 338.04 156.053L346.38 150.473L355.3 154.877ZM339.398 176.006L331.158 181.579L322.138 177.181L330.478 171.602L339.398 176.006ZM330.478 171.602L322.138 177.181L313.119 172.784L321.459 167.205L330.478 171.602ZM374.386 181.142L366.146 186.714L365.467 176.737L373.707 171.165L373.028 161.188L381.368 155.608L382.727 175.562C382.604 173.766 382.877 171.877 383.543 169.894C384.206 167.844 385.112 165.945 386.263 164.196C387.475 162.376 388.817 160.982 390.288 160.013L398.628 154.433L399.307 164.41L382.727 175.562L385.308 213.475L401.889 202.323L402.568 212.299L385.987 223.451C383.75 224.94 381.732 225.245 379.935 224.365C378.138 223.485 377.149 221.714 376.967 219.054L374.386 181.142ZM401.889 202.323L385.308 213.475L376.288 209.077L392.869 197.925L401.889 202.323ZM398.628 154.433L390.288 160.013C388.817 160.982 387.475 162.376 386.263 164.196C385.112 165.945 384.206 167.844 383.543 169.894C382.877 171.877 382.604 173.766 382.727 175.562L373.707 171.165C373.585 169.369 373.857 167.479 374.524 165.496C375.186 163.446 376.126 161.545 377.343 159.792C378.556 157.972 379.897 156.577 381.368 155.608L389.609 150.036L398.628 154.433ZM373.707 171.165L365.467 176.737L356.447 172.34L364.787 166.76L373.707 171.165ZM374.386 181.142L376.967 219.054C377.149 221.714 378.138 223.485 379.935 224.365L371.015 219.96C369.218 219.08 368.229 217.31 368.048 214.65L365.467 176.737L374.386 181.142ZM381.368 155.608L373.028 161.188L364.108 156.784L372.349 151.211L381.368 155.608ZM373.028 161.188L373.707 171.165L364.787 166.76L364.108 156.784L373.028 161.188ZM365.467 176.737L366.146 186.714L357.126 182.317L356.447 172.34L365.467 176.737Z" fill="#33FF57"/>
</g>
<defs>
<clipPath id="clip0_20_35">
<rect width="500" height="500" fill="white"/>
</clipPath>
</defs>
</svg>
